<?xml version="1.0" standalone="no"?>
<!DOCTYPE svg PUBLIC "-//W3C//DTD SVG 20010904//EN"
 "http://www.w3.org/TR/2001/REC-SVG-20010904/DTD/svg10.dtd">
<svg version="1.0" xmlns="http://www.w3.org/2000/svg"
 width="512.000000pt" height="512.000000pt" viewBox="0 0 512.000000 512.000000"
 preserveAspectRatio="xMidYMid meet">
<metadata>
Created by potrace 1.11, written by Peter Selinger 2001-2013
</metadata>
<g transform="translate(0.000000,512.000000) scale(0.100000,-0.100000)"
fill="#000000" stroke="none">
<path d="M2445 4272 c-101 -86 -187 -179 -232 -251 -20 -31 -66 -101 -103
-156 -98 -146 -226 -362 -306 -518 l-45 -88 -57 55 c-131 127 -356 286 -403
286 -37 0 -59 -22 -111 -110 -97 -165 -185 -365 -312 -718 l-12 -33 -70 77
c-38 43 -101 111 -141 152 -69 72 -73 75 -109 69 -50 -8 -58 -18 -94 -117
-148 -397 -242 -749 -285 -1060 -3 -25 -8 -56 -10 -70 -6 -44 -15 -124 -20
-175 -2 -27 -14 -68 -25 -90 -39 -77 -21 -168 46 -223 66 -55 165 -53 230 3
113 98 521 228 879 280 22 4 51 8 65 11 38 7 355 42 435 48 365 29 1338 29
1580 1 17 -2 64 -7 105 -10 41 -3 91 -8 110 -10 19 -3 55 -7 80 -10 67 -8 133
-17 155 -21 10 -2 37 -6 60 -9 169 -24 419 -83 577 -136 104 -35 248 -103 311
-148 52 -37 84 -45 143 -36 52 7 110 52 130 102 26 62 14 145 -27 189 -21 23
-24 31 -33 119 -10 93 -35 255 -52 347 -9 46 -18 94 -20 108 -4 19 -49 210
-59 250 -1 3 -5 19 -9 35 -29 110 -93 309 -146 455 -58 156 -101 196 -165 154
-14 -9 -25 -22 -25 -30 0 -7 -5 -16 -12 -20 -7 -5 -8 -2 -3 7 4 8 -30 -26 -75
-74 l-83 -88 -44 118 c-82 223 -158 391 -240 531 -24 41 -43 77 -43 81 0 16
-39 42 -71 47 -29 5 -47 -3 -124 -55 -119 -79 -212 -154 -316 -255 l-86 -84
-77 152 c-42 83 -105 200 -141 260 -36 59 -65 110 -65 113 0 3 -35 57 -78 121
-43 65 -94 142 -114 172 -45 70 -158 191 -246 264 -96 78 -113 77 -217 -12z
m-224 -909 c46 -67 181 -205 252 -259 37 -27 69 -44 87 -44 37 0 115 59 220
167 98 101 154 180 195 275 33 76 25 79 95 -42 59 -100 190 -368 190 -385 0
-5 -118 -154 -130 -165 -24 -21 -238 -332 -302 -440 -47 -78 -41 -75 -86 -45
-85 56 -194 69 -292 35 -30 -10 -58 -16 -62 -12 -4 4 -32 48 -63 97 -109 173
-285 412 -383 520 -70 76 -69 62 -9 182 59 116 105 200 152 275 l29 47 37 -79
c21 -43 52 -100 70 -127z m-771 -43 c41 -32 112 -93 157 -136 l83 -79 -26 -60
c-14 -33 -29 -69 -34 -80 -46 -102 -157 -441 -201 -611 -26 -102 -38 -129 -65
-160 -19 -20 -34 -41 -34 -47 0 -5 -36 42 -80 106 -45 63 -122 166 -172 228
l-92 113 46 137 c68 200 140 375 220 537 l71 143 26 -17 c14 -10 60 -43 101
-74z m2504 -63 c63 -128 175 -402 212 -519 l17 -57 -83 -103 c-46 -57 -87
-105 -90 -108 -9 -9 -166 -223 -195 -267 l-27 -42 -43 42 c-33 33 -46 55 -58
102 -64 249 -112 402 -199 635 l-39 105 110 107 c134 130 301 260 317 246 7
-5 41 -68 78 -141z m-2127 -301 c7 -12 60 -76 107 -130 10 -11 32 -41 49 -66
17 -25 33 -47 37 -50 10 -9 133 -190 194 -288 37 -59 56 -98 52 -109 -6 -14
-10 -13 -34 9 -75 68 -223 85 -318 36 -55 -29 -113 -87 -134 -135 l-14 -31
-49 34 c-44 30 -102 54 -134 54 -8 0 -7 13 4 48 8 26 16 57 19 69 19 94 190
573 205 573 4 0 12 -6 16 -14z m1577 -254 c30 -92 62 -192 70 -222 8 -30 23
-85 34 -122 21 -73 19 -80 -29 -91 -15 -4 -49 -22 -76 -41 l-49 -34 -13 30
c-58 130 -218 196 -370 152 -22 -7 -21 -2 19 57 23 35 63 95 89 134 52 78 118
169 194 267 44 58 54 66 64 52 6 -8 36 -91 67 -182z m-2695 -30 c109 -120 103
-100 65 -232 -29 -97 -96 -350 -109 -408 -2 -9 -15 -64 -28 -122 l-24 -105
-79 -28 c-43 -15 -112 -43 -151 -62 -64 -30 -95 -33 -79 -7 2 4 7 33 10 64 4
46 26 175 51 303 38 192 164 625 208 713 l11 23 26 -29 c14 -16 58 -66 99
-110z m3870 -27 c64 -194 129 -436 147 -545 3 -19 9 -51 14 -70 5 -19 14 -69
20 -110 7 -41 14 -82 15 -90 1 -8 6 -43 10 -77 l7 -63 -69 31 c-37 17 -82 37
-100 44 -27 12 -33 21 -43 72 -19 96 -136 549 -175 677 -24 78 -34 125 -28
136 13 27 137 159 144 154 4 -2 30 -74 58 -159z m-321 -192 c5 -21 26 -99 47
-173 20 -74 39 -142 40 -150 2 -8 18 -71 34 -140 17 -69 33 -132 35 -141 3
-13 -15 -11 -114 14 l-117 29 -6 54 c-4 35 -16 71 -33 98 -26 42 -97 96 -125
96 -8 0 -20 4 -28 9 -12 8 -3 25 44 88 89 119 197 253 205 253 4 0 12 -17 18
-37z m-3157 -268 c25 -40 24 -41 -13 -49 -42 -8 -123 -93 -137 -143 -6 -21
-11 -52 -11 -69 0 -31 -2 -32 -70 -49 -39 -10 -73 -15 -76 -12 -3 2 14 78 36
168 23 90 43 171 45 179 3 13 39 138 52 183 4 13 24 -7 81 -80 41 -54 83 -111
93 -128z"/>
</g>
</svg>
